<svg width="3368" height="3368" viewBox="0 0 3368 3368" fill="none" xmlns="http://www.w3.org/2000/svg">
<rect width="3368" height="3368" rx="1684" fill="#FF056E"/>
<path fill-rule="evenodd" clip-rule="evenodd" d="M1565.27 685.177L595.347 560C619.186 755.216 665.968 1149.22 662.392 1163.53C662.004 1165.08 661.848 1165.86 661.798 1166.14C661.777 1166.3 661.764 1166.33 661.798 1166.14C662.066 1164.11 663.737 1140.82 590.879 1266.35L523.833 1384.82C418.796 1666.47 461.257 1977.18 523.833 2111.3C586.408 2245.41 859.058 2674.59 1408.83 2781.89C1958.6 2889.18 2378.75 2634.36 2436.85 2585.18C2494.96 2536 2821.25 2314.71 2883.82 1941.41C2935.82 1631.24 2901.7 1525.65 2767.61 1266.35C2633.52 1007.06 2405.57 875.177 2217.84 788C2097.93 732.314 1859 699.235 1760.32 685.573L1757.46 685.177H1565.27ZM661.798 1166.14C661.777 1166.3 661.764 1166.33 661.798 1166.14ZM1621.14 765.647L718.265 647.177L919.4 1163.53C513.553 1775.11 856.079 2246.9 1078.07 2406.36C1139.16 2492.04 1383.8 2661.63 1873.68 2654.47C2486.02 2645.53 2713.97 2216.36 2830.19 1963.77C2923.16 1761.7 2827.21 1463.81 2767.61 1340.12C2767.61 1340.12 2680.45 1138.94 2436.85 962.353C2193.26 785.765 1831.21 765.647 1831.21 765.647H1621.14Z" fill="white"/>
<path d="M2104.84 1939.18C2104.84 2053.99 2056.81 2147.06 1997.57 2147.06C1938.32 2147.06 1890.3 2053.99 1890.3 1939.18C1890.3 1824.37 1938.32 1731.3 1997.57 1731.3C2056.81 1731.3 2104.84 1824.37 2104.84 1939.18Z" fill="white"/>
<path d="M2466.88 1939.18C2466.88 2029.3 2430.86 2102.35 2386.43 2102.35C2342 2102.35 2305.98 2029.3 2305.98 1939.18C2305.98 1849.06 2342 1776 2386.43 1776C2430.86 1776 2466.88 1849.06 2466.88 1939.18Z" fill="white"/>
</svg>
