<svg width="1914" height="1914" viewBox="0 0 1914 1914" fill="none" xmlns="http://www.w3.org/2000/svg">
<path fill-rule="evenodd" clip-rule="evenodd" d="M873.701 253.203L190.357 165C207.152 302.554 240.112 580.183 237.593 590.263C237.319 591.359 237.21 591.905 237.174 592.105C237.159 592.218 237.15 592.238 237.174 592.105C237.363 590.673 238.54 574.258 187.209 662.716L139.972 746.193C65.9705 944.649 95.8857 1163.58 139.972 1258.08C184.059 1352.59 376.151 1655 763.484 1730.6C1150.82 1806.2 1446.83 1626.65 1487.76 1591.99C1528.7 1557.34 1758.58 1401.41 1802.67 1138.38C1839.3 919.824 1815.27 845.421 1720.8 662.716C1626.32 480.01 1465.72 387.082 1333.46 325.655C1248.98 286.417 1080.65 263.108 1011.12 253.482L1009.11 253.203H873.701ZM237.174 592.105C237.159 592.218 237.15 592.238 237.174 592.105ZM913.064 309.905L276.957 226.427L418.664 590.263C132.73 1021.2 374.052 1353.64 530.455 1465.99C573.492 1526.37 745.85 1645.86 1090.99 1640.82C1522.41 1634.52 1683.01 1332.11 1764.88 1154.13C1830.38 1011.75 1762.78 801.845 1720.8 714.692C1720.8 714.692 1659.39 572.938 1487.76 448.509C1316.14 324.08 1061.07 309.905 1061.07 309.905H913.064Z" fill="#FF056E"/>
<path d="M1253.85 1136.81C1253.85 1217.7 1220.01 1283.28 1178.27 1283.28C1136.53 1283.28 1102.7 1217.7 1102.7 1136.81C1102.7 1055.91 1136.53 990.326 1178.27 990.326C1220.01 990.326 1253.85 1055.91 1253.85 1136.81Z" fill="#FF056E"/>
<path d="M1508.92 1136.81C1508.92 1200.31 1483.54 1251.78 1452.24 1251.78C1420.93 1251.78 1395.56 1200.31 1395.56 1136.81C1395.56 1073.3 1420.93 1021.83 1452.24 1021.83C1483.54 1021.83 1508.92 1073.3 1508.92 1136.81Z" fill="#FF056E"/>
<path fill-rule="evenodd" clip-rule="evenodd" d="M276.957 226.427L913.064 309.905H1061.07C1061.07 309.905 1316.14 324.08 1487.76 448.509C1659.39 572.938 1720.8 714.692 1720.8 714.692C1762.78 801.845 1830.38 1011.75 1764.88 1154.13C1683.01 1332.11 1522.41 1634.52 1090.99 1640.82C745.85 1645.86 573.492 1526.37 530.455 1465.99C374.052 1353.64 132.73 1021.2 418.664 590.263L276.957 226.427ZM1178.27 1283.28C1220.01 1283.28 1253.85 1217.7 1253.85 1136.81C1253.85 1055.91 1220.01 990.326 1178.27 990.326C1136.53 990.326 1102.7 1055.91 1102.7 1136.81C1102.7 1217.7 1136.53 1283.28 1178.27 1283.28ZM1452.24 1251.78C1483.54 1251.78 1508.92 1200.31 1508.92 1136.81C1508.92 1073.3 1483.54 1021.83 1452.24 1021.83C1420.93 1021.83 1395.56 1073.3 1395.56 1136.81C1395.56 1200.31 1420.93 1251.78 1452.24 1251.78Z" fill="white"/>
</svg>
